<svg width="200" height="200" viewBox="0 0 200 200" xmlns="http://www.w3.org/2000/svg">
  <!-- Green cross parts -->
  <rect x="0" y="50" width="75" height="100" rx="15" fill="#0AA15F"/>
  <rect x="125" y="50" width="75" height="100" rx="15" fill="#0AA15F"/>
  <rect x="50" y="0" width="100" height="75" rx="15" fill="#0AA15F"/>
  <rect x="50" y="125" width="100" height="75" rx="15" fill="#0AA15F"/>
  
  <!-- Gold cross parts -->
  <rect x="0" y="50" width="75" height="100" rx="15" fill="#d4a017"/>
  <rect x="125" y="50" width="75" height="100" rx="15" fill="#d4a017"/>
  
  <!-- Center white circle with fingerprint -->
  <circle cx="100" cy="100" r="40" fill="white"/>
  
  <!-- Fingerprint -->
  <path d="M100 70 Q110 75 110 85 Q110 95 100 100 Q90 95 90 85 Q90 75 100 70" 
        stroke="#0AA15F" stroke-width="3" fill="none"/>
  <path d="M100 75 Q107 78 107 85 Q107 92 100 95 Q93 92 93 85 Q93 78 100 75" 
        stroke="#0AA15F" stroke-width="2.5" fill="none"/>
</svg>
